<?xml version="1.0" encoding="UTF-8" standalone="no"?>
<svg
   viewBox="0.0 0.0 348.0 348.0"
   fill="none"
   version="1.1"
   id="svg6"
   sodipodi:docname="Pattern Hypercube.svg"
   inkscape:version="1.1 (c68e22c387, 2021-05-23)"
   xmlns:inkscape="http://www.inkscape.org/namespaces/inkscape"
   xmlns:sodipodi="http://sodipodi.sourceforge.net/DTD/sodipodi-0.dtd"
   xmlns="http://www.w3.org/2000/svg"
   xmlns:svg="http://www.w3.org/2000/svg">
  <defs
     id="defs10" />
  <sodipodi:namedview
     id="namedview8"
     pagecolor="#ffffff"
     bordercolor="#666666"
     borderopacity="1.0"
     inkscape:pageshadow="2"
     inkscape:pageopacity="0.0"
     inkscape:pagecheckerboard="0"
     showgrid="false"
     inkscape:snap-bbox="true"
     inkscape:bbox-paths="true"
     inkscape:bbox-nodes="true"
     inkscape:snap-bbox-edge-midpoints="true"
     inkscape:snap-bbox-midpoints="true"
     inkscape:object-paths="true"
     inkscape:snap-intersection-paths="true"
     inkscape:snap-smooth-nodes="true"
     inkscape:snap-midpoints="true"
     inkscape:snap-object-midpoints="true"
     inkscape:snap-center="true"
     inkscape:snap-text-baseline="true"
     inkscape:snap-page="true"
     inkscape:zoom="1.7250967"
     inkscape:cx="167.81668"
     inkscape:cy="193.90217"
     inkscape:window-width="1858"
     inkscape:window-height="1057"
     inkscape:window-x="1974"
     inkscape:window-y="-8"
     inkscape:window-maximized="1"
     inkscape:current-layer="svg6"
     inkscape:snap-global="true" />
  <rect
     style="fill:none;stroke:#000000;stroke-width:4;stroke-linecap:round;stroke-linejoin:round;stroke-miterlimit:4;stroke-dasharray:none;stroke-opacity:1"
     id="rect1885"
     width="59.323608"
     height="24.183746"
     x="249.06613"
     y="126.20891" />
  <path
     d="M5.079 5.776h336.913v337.67H5.08z"
     stroke-width="2"
     stroke="#000"
     id="path2"
     style="stroke-width:4;stroke-miterlimit:4;stroke-dasharray:none;stroke-linejoin:round;stroke-linecap:round" />
  <path
     d="M282.734 40.554c0-8.376 6.966-15.165 15.56-15.165 4.126 0 8.084 1.597 11.001 4.441 2.918 2.844 4.558 6.702 4.558 10.724 0 8.376-6.966 15.165-15.56 15.165-8.593 0-15.559-6.79-15.559-15.165z"
     stroke-width="2"
     stroke="#000"
     id="path4"
     style="stroke-width:4;stroke-miterlimit:4;stroke-dasharray:none;stroke-linejoin:round;stroke-linecap:round" />
  <rect
     style="fill:none;stroke:#000000;stroke-width:4;stroke-linecap:round;stroke-linejoin:round;stroke-miterlimit:4;stroke-dasharray:none;stroke-opacity:1"
     id="rect1023"
     width="24.183746"
     height="24.183746"
     x="109.8516"
     y="48.367489" />
  <rect
     style="fill:none;stroke:#000000;stroke-width:4;stroke-linecap:round;stroke-linejoin:round;stroke-miterlimit:4;stroke-dasharray:none;stroke-opacity:1"
     id="rect1023-8"
     width="24.183746"
     height="24.183746"
     x="144.99147"
     y="48.367489" />
  <rect
     style="fill:none;stroke:#000000;stroke-width:4;stroke-linecap:round;stroke-linejoin:round;stroke-miterlimit:4;stroke-dasharray:none;stroke-opacity:1"
     id="rect1023-1"
     width="24.183746"
     height="24.183746"
     x="109.85159"
     y="83.50737" />
  <rect
     style="fill:none;stroke:#000000;stroke-width:4;stroke-linecap:round;stroke-linejoin:round;stroke-miterlimit:4;stroke-dasharray:none;stroke-opacity:1"
     id="rect1023-8-5"
     width="24.183746"
     height="24.183746"
     x="144.99146"
     y="83.50737" />
  <path
     style="fill:#ffffff;stroke:none;stroke-width:1px;stroke-linecap:butt;stroke-linejoin:miter;stroke-opacity:1;fill-opacity:1"
     d="m 151.87554,102.02327 64.9239,41.15711 L 98.545199,194.48185 33.621303,153.32474 151.87554,102.02327"
     id="path23263" />
  <rect
     style="fill:none;stroke:#000000;stroke-width:4;stroke-linecap:round;stroke-linejoin:round;stroke-miterlimit:4;stroke-dasharray:none;stroke-opacity:1"
     id="rect1023-16"
     width="24.183746"
     height="24.183746"
     x="249.06612"
     y="161.34879" />
  <rect
     style="fill:none;stroke:#000000;stroke-width:4;stroke-linecap:round;stroke-linejoin:round;stroke-miterlimit:4;stroke-dasharray:none;stroke-opacity:1"
     id="rect1023-8-9"
     width="24.183746"
     height="24.183746"
     x="284.20599"
     y="161.34879" />
  <rect
     style="fill:none;stroke:#000000;stroke-width:4;stroke-linecap:round;stroke-linejoin:round;stroke-miterlimit:4;stroke-dasharray:none;stroke-opacity:1"
     id="rect1023-1-6"
     width="24.183746"
     height="24.183746"
     x="249.0661"
     y="196.48866" />
  <rect
     style="fill:none;stroke:#000000;stroke-width:4;stroke-linecap:round;stroke-linejoin:round;stroke-miterlimit:4;stroke-dasharray:none;stroke-opacity:1"
     id="rect1023-8-5-4"
     width="24.183746"
     height="24.183746"
     x="284.20596"
     y="196.48866" />
  <rect
     style="fill:none;stroke:#000000;stroke-width:4;stroke-linecap:round;stroke-linejoin:round;stroke-miterlimit:4;stroke-dasharray:none;stroke-opacity:1"
     id="rect1023-1-0"
     width="24.183746"
     height="24.183746"
     x="249.0661"
     y="231.62854" />
  <rect
     style="fill:none;stroke:#000000;stroke-width:4;stroke-linecap:round;stroke-linejoin:round;stroke-miterlimit:4;stroke-dasharray:none;stroke-opacity:1"
     id="rect1023-8-5-3"
     width="24.183746"
     height="24.183746"
     x="284.20596"
     y="231.62854" />
  <rect
     style="fill:none;stroke:#000000;stroke-width:4;stroke-linecap:round;stroke-linejoin:round;stroke-miterlimit:4;stroke-dasharray:none;stroke-opacity:1"
     id="rect1023-1-0-0"
     width="24.183746"
     height="24.183746"
     x="249.0661"
     y="266.76843" />
  <rect
     style="fill:none;stroke:#000000;stroke-width:4;stroke-linecap:round;stroke-linejoin:round;stroke-miterlimit:4;stroke-dasharray:none;stroke-opacity:1"
     id="rect1023-8-5-3-0"
     width="24.183746"
     height="24.183746"
     x="284.20596"
     y="266.76843" />
  <path
     style="color:#000000;fill:#000000;stroke-linecap:round;stroke-linejoin:round;-inkscape-stroke:none"
     d="m 34.691406,151.63477 a 2,2 0 0 0 -2.759765,0.61914 2,2 0 0 0 0.61914,2.75976 l 64.923828,41.1582 a 2,2 0 0 0 2.759771,-0.61914 2,2 0 0 0 -0.619146,-2.75976 z"
     id="path2395" />
  <g
     id="path2395-8">
    <path
       style="color:#000000;fill:#000000;stroke-width:4;stroke-linecap:round;stroke-linejoin:round;-inkscape-stroke:none"
       d="m 151.87554,102.02327 64.9239,41.15711"
       id="path22633" />
    <path
       style="color:#000000;fill:#000000;stroke-linecap:round;stroke-linejoin:round;-inkscape-stroke:none"
       d="m 152.94727,100.33398 a 2,2 0 0 0 -2.76172,0.61915 2,2 0 0 0 0.61914,2.75976 l 64.92383,41.15625 a 2,2 0 0 0 2.75976,-0.61719 2,2 0 0 0 -0.61719,-2.76172 z"
       id="path22635" />
  </g>
  <path
     style="fill:none;stroke:#000000;stroke-width:4;stroke-linecap:round;stroke-linejoin:round;stroke-opacity:1;stroke-miterlimit:4;stroke-dasharray:none"
     d="M 62.025503,274.18753 126.9494,315.34464"
     id="path2395-7" />
  <path
     style="color:#000000;fill:#000000;stroke-linecap:round;stroke-linejoin:round;-inkscape-stroke:none"
     d="M 216.00391,141.3457 97.75,192.64648 a 2,2 0 0 0 -1.039063,2.63086 2,2 0 0 0 2.63086,1.03907 L 217.5957,145.01562 a 2,2 0 0 0 1.03907,-2.63085 2,2 0 0 0 -2.63086,-1.03907 z"
     id="path2510" />
  <path
     style="fill:none;stroke:#000000;stroke-width:4;stroke-linecap:round;stroke-linejoin:round;stroke-opacity:1;stroke-miterlimit:4;stroke-dasharray:none"
     d="M 126.9494,315.34464 245.20364,264.04317"
     id="path2510-6" />
  <g
     id="path2510-7">
    <path
       style="color:#000000;fill:#000000;stroke-width:4;stroke-linecap:round;stroke-linejoin:round;-inkscape-stroke:none"
       d="M 33.621303,153.32474 151.87554,102.02327"
       id="path22641" />
    <path
       style="color:#000000;fill:#000000;stroke-linecap:round;stroke-linejoin:round;-inkscape-stroke:none"
       d="M 151.08008,100.18945 32.826172,151.49023 a 2,2 0 0 0 -1.039063,2.63086 2,2 0 0 0 2.63086,1.03907 L 152.67187,103.85742 a 2,2 0 0 0 1.03907,-2.63086 2,2 0 0 0 -2.63086,-1.03711 z"
       id="path22643" />
  </g>
  <path
     style="fill:none;stroke:#000000;stroke-width:4;stroke-linecap:round;stroke-linejoin:round;stroke-opacity:1;stroke-miterlimit:4;stroke-dasharray:none"
     d="M 126.9494,315.34464 98.545199,194.48185"
     id="path2512" />
  <path
     style="fill:none;stroke:#000000;stroke-width:4;stroke-linecap:round;stroke-linejoin:round;stroke-opacity:1;stroke-miterlimit:4;stroke-dasharray:none"
     d="M 62.025504,274.18753 33.621303,153.32474"
     id="path2512-8" />
  <path
     style="fill:none;stroke:#000000;stroke-width:4;stroke-linecap:round;stroke-linejoin:round;stroke-opacity:1;stroke-miterlimit:4;stroke-dasharray:none"
     d="M 245.20364,264.04317 216.79944,143.18038"
     id="path2512-6" />
  <path
     style="fill:none;stroke:#000000;stroke-width:4;stroke-linecap:round;stroke-linejoin:round;stroke-opacity:1;stroke-miterlimit:4;stroke-dasharray:none"
     d="m 91.897688,183.82006 29.159752,18.48519"
     id="path2395-88" />
  <path
     style="fill:none;stroke:#000000;stroke-width:4;stroke-linecap:round;stroke-linejoin:round;stroke-opacity:1;stroke-miterlimit:4;stroke-dasharray:none"
     d="m 145.01011,160.77865 29.15975,18.4852"
     id="path2395-8-2" />
  <path
     style="fill:none;stroke:#000000;stroke-width:4;stroke-linecap:round;stroke-linejoin:round;stroke-opacity:1;stroke-miterlimit:4;stroke-dasharray:none"
     d="m 104.65508,238.10406 29.15975,18.4852"
     id="path2395-7-9" />
  <path
     style="fill:none;stroke:#000000;stroke-width:4;stroke-linecap:round;stroke-linejoin:round;stroke-opacity:1;stroke-miterlimit:4;stroke-dasharray:none"
     d="m 121.05744,202.30525 53.11242,-23.0414"
     id="path2510-5" />
  <path
     style="fill:none;stroke:#000000;stroke-width:4;stroke-linecap:round;stroke-linejoin:round;stroke-opacity:1;stroke-miterlimit:4;stroke-dasharray:none"
     d="m 133.81483,256.58926 53.11242,-23.04141"
     id="path2510-6-8" />
  <path
     style="fill:none;stroke:#000000;stroke-width:4;stroke-linecap:round;stroke-linejoin:round;stroke-opacity:1;stroke-miterlimit:4;stroke-dasharray:none"
     d="M 91.897688,183.82006 145.01011,160.77865"
     id="path2510-7-8" />
  <path
     style="fill:none;stroke:#000000;stroke-width:4;stroke-linecap:round;stroke-linejoin:round;stroke-opacity:1;stroke-miterlimit:4;stroke-dasharray:none"
     d="M 133.81483,256.58926 121.05744,202.30525"
     id="path2512-0" />
  <path
     style="fill:none;stroke:#000000;stroke-width:4;stroke-linecap:round;stroke-linejoin:round;stroke-opacity:1;stroke-miterlimit:4;stroke-dasharray:none"
     d="m 104.65508,238.10406 -12.757392,-54.284"
     id="path2512-8-5" />
  <path
     style="fill:none;stroke:#000000;stroke-width:4;stroke-linecap:round;stroke-linejoin:round;stroke-opacity:1;stroke-miterlimit:4;stroke-dasharray:none"
     d="m 186.92725,233.54785 -12.75739,-54.284"
     id="path2512-6-7" />
  <path
     style="fill:none;stroke:#000000;stroke-width:4;stroke-linecap:round;stroke-linejoin:round;stroke-opacity:1;stroke-miterlimit:4;stroke-dasharray:none"
     d="M 91.897688,183.82006 33.621303,153.32474"
     id="path2803" />
  <path
     style="fill:#000000;stroke:#000000;stroke-width:4;stroke-linecap:round;stroke-linejoin:round;stroke-opacity:1;stroke-miterlimit:4;stroke-dasharray:none;fill-opacity:1"
     d="m 145.01011,160.77865 6.86543,-58.75538"
     id="path2805" />
  <path
     style="fill:none;stroke:#000000;stroke-width:4;stroke-linecap:round;stroke-linejoin:round;stroke-opacity:1;stroke-miterlimit:4;stroke-dasharray:none"
     d="m 174.16986,179.26385 42.62958,-36.08347"
     id="path2807" />
  <path
     style="fill:none;stroke:#000000;stroke-width:4;stroke-linecap:round;stroke-linejoin:round;stroke-opacity:1;stroke-miterlimit:4;stroke-dasharray:none"
     d="m 186.92725,233.54785 58.27639,30.49532"
     id="path2809" />
  <path
     style="fill:none;stroke:#000000;stroke-width:4;stroke-linecap:round;stroke-linejoin:round;stroke-opacity:1;stroke-miterlimit:4;stroke-dasharray:none"
     d="m 133.81483,256.58926 -6.86543,58.75538"
     id="path2811" />
  <path
     style="fill:none;stroke:#000000;stroke-width:4;stroke-linecap:round;stroke-linejoin:round;stroke-opacity:1;stroke-miterlimit:4;stroke-dasharray:none"
     d="M 104.65508,238.10406 62.025504,274.18753"
     id="path2813" />
  <path
     style="fill:none;stroke:#000000;stroke-width:4;stroke-linecap:round;stroke-linejoin:round;stroke-opacity:1;stroke-miterlimit:4;stroke-dasharray:none"
     d="m 121.05744,202.30525 -22.512241,-7.8234"
     id="path2815" />
  <g
     aria-label="3D"
     transform="scale(0.8157706,1.2258348)"
     id="text5583"
     style="font-size:20.525px;line-height:1.25;fill:#000000;stroke-width:0.513125">
    <path
       d="m 147.28273,80.67294 q 0,0.972131 -0.37081,1.723779 -0.37082,0.751648 -1.03227,1.262769 -0.66145,0.511121 -1.58347,0.781714 -0.92202,0.260571 -2.01441,0.260571 -0.66145,0 -1.24273,-0.10022 -0.58127,-0.0902 -1.03226,-0.230505 -0.44097,-0.140308 -0.73161,-0.290637 -0.29063,-0.15033 -0.38083,-0.230506 -0.0902,-0.08018 -0.14031,-0.180395 -0.0401,-0.10022 -0.0802,-0.230505 -0.0301,-0.140308 -0.0501,-0.340748 -0.01,-0.210461 -0.01,-0.501098 0,-0.481055 0.0802,-0.66145 0.0802,-0.190418 0.24053,-0.190418 0.10022,0 0.34074,0.140308 0.25055,0.130285 0.63139,0.290637 0.38083,0.15033 0.89195,0.290637 0.51112,0.130286 1.16255,0.130286 0.55121,0 0.97213,-0.130286 0.42093,-0.130285 0.71156,-0.360791 0.30066,-0.240527 0.44097,-0.571252 0.15033,-0.340747 0.15033,-0.751648 0,-0.450989 -0.1804,-0.81178 -0.17037,-0.360791 -0.52114,-0.61134 -0.34074,-0.260572 -0.87191,-0.400879 -0.52114,-0.140308 -1.2327,-0.140308 h -1.12246 q -0.13029,0 -0.22049,-0.03007 -0.0902,-0.04009 -0.15033,-0.150329 -0.0601,-0.110242 -0.0902,-0.300659 -0.02,-0.20044 -0.02,-0.511121 0,-0.290637 0.02,-0.471033 0.0301,-0.190417 0.0802,-0.290637 0.0601,-0.10022 0.14031,-0.140308 0.0902,-0.04009 0.21046,-0.04009 h 1.13248 q 0.58128,0 1.03227,-0.130286 0.45099,-0.140308 0.75165,-0.390857 0.31068,-0.250549 0.47103,-0.601318 0.16035,-0.360791 0.16035,-0.791736 0,-0.330725 -0.11024,-0.621362 -0.11024,-0.30066 -0.33073,-0.511121 -0.21046,-0.220483 -0.55121,-0.340747 -0.34074,-0.130286 -0.80175,-0.130286 -0.52115,0 -0.98216,0.160352 -0.46101,0.150329 -0.83182,0.340747 -0.36079,0.180395 -0.62136,0.340747 -0.25055,0.160351 -0.37082,0.160351 -0.0802,0 -0.1403,-0.03006 -0.0601,-0.04009 -0.10022,-0.140308 -0.0401,-0.10022 -0.0601,-0.290637 -0.02,-0.190418 -0.02,-0.491077 0,-0.250549 0.01,-0.410901 0.01,-0.170373 0.0401,-0.280615 0.0301,-0.110242 0.0702,-0.190418 0.0501,-0.08018 0.15033,-0.170373 0.10022,-0.10022 0.41091,-0.290637 0.31068,-0.190418 0.78171,-0.370813 0.47103,-0.180396 1.08237,-0.300659 0.62136,-0.130286 1.34295,-0.130286 0.94206,0 1.66364,0.220483 0.73161,0.220484 1.22268,0.641407 0.5011,0.4109 0.75165,1.022241 0.26057,0.601318 0.26057,1.362988 0,0.591296 -0.15033,1.102417 -0.15033,0.511121 -0.44096,0.912 -0.29064,0.400878 -0.73161,0.681494 -0.43094,0.280615 -1.00219,0.420922 v 0.03007 q 0.68149,0.08018 1.22268,0.350769 0.54118,0.260572 0.912,0.661451 0.38083,0.400879 0.58127,0.911999 0.20044,0.501099 0.20044,1.082373 z"
       style="font-weight:bold;font-family:Calibri;-inkscape-font-specification:'Calibri Bold'"
       id="path24285" />
    <path
       d="m 160.35138,77.796634 q 0,1.783911 -0.47103,3.056702 -0.46101,1.262768 -1.33292,2.064526 -0.87191,0.801758 -2.12466,1.182593 -1.24273,0.370813 -2.96651,0.370813 h -3.09678 q -0.33073,0 -0.56124,-0.190418 -0.22048,-0.200439 -0.22048,-0.641406 V 72.334659 q 0,-0.440967 0.22048,-0.631384 0.23051,-0.20044 0.56124,-0.20044 h 3.32729 q 1.7338,0 2.93644,0.410901 1.21266,0.400879 2.03446,1.202637 0.83182,0.791736 1.26277,1.964306 0.43094,1.172571 0.43094,2.715955 z m -2.72597,0.0902 q 0,-0.922022 -0.22049,-1.713758 -0.21046,-0.791735 -0.69151,-1.37301 -0.47104,-0.581274 -1.22268,-0.901977 -0.74163,-0.330725 -1.95429,-0.330725 h -1.33292 v 8.819335 h 1.37301 q 1.08237,0 1.824,-0.280615 0.74162,-0.280615 1.2327,-0.841845 0.5011,-0.571253 0.74163,-1.413099 0.25055,-0.841845 0.25055,-1.964306 z"
       style="font-weight:bold;font-family:Calibri;-inkscape-font-specification:'Calibri Bold'"
       id="path24287" />
  </g>
  <g
     aria-label="4D"
     transform="scale(0.8157706,1.2258348)"
     id="text5583-4"
     style="font-size:20.525px;line-height:1.25;fill:#000000;stroke-width:0.513125">
    <path
       d="m 191.06494,80.743094 q 0,0.511121 -0.11024,0.781714 -0.10022,0.260571 -0.28062,0.260571 h -1.15253 v 2.345142 q 0,0.100219 -0.0601,0.180395 -0.0601,0.07015 -0.21046,0.120264 -0.15033,0.05011 -0.39086,0.07015 -0.24052,0.03007 -0.62136,0.03007 -0.36079,0 -0.61134,-0.03007 -0.24053,-0.02004 -0.39086,-0.07015 -0.1403,-0.05011 -0.20043,-0.120264 -0.0501,-0.08018 -0.0501,-0.180395 v -2.345142 h -4.96088 q -0.14031,0 -0.25055,-0.03007 -0.11024,-0.04009 -0.19042,-0.160351 -0.0701,-0.130286 -0.11024,-0.360791 -0.0301,-0.240528 -0.0301,-0.631385 0,-0.320703 0.01,-0.551208 0.02,-0.240527 0.0501,-0.430945 0.0401,-0.190417 0.10022,-0.360791 0.0702,-0.170374 0.17037,-0.360791 l 4.02883,-7.105578 q 0.0501,-0.0902 0.17038,-0.15033 0.12026,-0.07015 0.33072,-0.110242 0.22048,-0.05011 0.55121,-0.07015 0.33072,-0.02004 0.80176,-0.02004 0.51112,0 0.87191,0.03007 0.36079,0.02004 0.57125,0.08018 0.22048,0.05011 0.3207,0.130286 0.10022,0.08018 0.10022,0.190417 v 7.807117 h 1.15253 q 0.16035,0 0.27059,0.250549 0.12027,0.240528 0.12027,0.81178 z M 186.986,73.717691 h -0.02 l -3.41749,5.963074 h 3.43754 z"
       style="font-weight:bold;font-family:Calibri;-inkscape-font-specification:'Calibri Bold'"
       id="path24280" />
    <path
       d="m 203.67258,77.796634 q 0,1.783911 -0.47103,3.056702 -0.46101,1.262768 -1.33293,2.064526 -0.87191,0.801758 -2.12465,1.182593 -1.24273,0.370813 -2.96651,0.370813 h -3.09679 q -0.33072,0 -0.56123,-0.190418 -0.22048,-0.200439 -0.22048,-0.641406 V 72.334659 q 0,-0.440967 0.22048,-0.631384 0.23051,-0.20044 0.56123,-0.20044 h 3.3273 q 1.7338,0 2.93644,0.410901 1.21265,0.400879 2.03446,1.202637 0.83182,0.791736 1.26276,1.964306 0.43095,1.172571 0.43095,2.715955 z m -2.72598,0.0902 q 0,-0.922022 -0.22048,-1.713758 -0.21046,-0.791735 -0.69152,-1.37301 -0.47103,-0.581274 -1.22268,-0.901977 -0.74162,-0.330725 -1.95428,-0.330725 h -1.33292 v 8.819335 h 1.37301 q 1.08237,0 1.82399,-0.280615 0.74163,-0.280615 1.23271,-0.841845 0.5011,-0.571253 0.74162,-1.413099 0.25055,-0.841845 0.25055,-1.964306 z"
       style="font-weight:bold;font-family:Calibri;-inkscape-font-specification:'Calibri Bold'"
       id="path24282" />
  </g>
  <g
     aria-label="&gt;"
     transform="scale(0.8157706,1.2258348)"
     id="text5583-4-1"
     style="font-size:20.525px;line-height:1.25;fill:#000000;stroke-width:0.513125">
    <path
       d="m 196.80754,49.35091 q 0,0.260572 -0.02,0.450989 -0.02,0.190418 -0.0601,0.320703 -0.0301,0.130286 -0.0902,0.210462 -0.0501,0.07015 -0.12027,0.100219 l -7.68685,3.80835 q -0.14031,0.07015 -0.24053,0.06013 -0.10022,-0.01002 -0.17037,-0.110242 -0.0601,-0.10022 -0.0902,-0.290637 -0.02,-0.20044 -0.02,-0.501099 0,-0.410901 0.01,-0.651428 0.02,-0.240527 0.0601,-0.380835 0.0401,-0.140308 0.11024,-0.200439 0.0702,-0.07015 0.19042,-0.120264 l 5.77266,-2.705933 -5.66242,-2.625756 q -0.16035,-0.07015 -0.26057,-0.140308 -0.0902,-0.07015 -0.14031,-0.210462 -0.0501,-0.150329 -0.0702,-0.390856 -0.01,-0.25055 -0.01,-0.671473 0,-0.370813 0.02,-0.581274 0.0301,-0.210461 0.0902,-0.300659 0.0701,-0.0902 0.17037,-0.08018 0.10022,0.01002 0.24053,0.08018 l 7.69688,3.838415 q 0.13028,0.06013 0.20043,0.320703 0.0802,0.260572 0.0802,0.771692 z"
       style="font-weight:bold;font-family:Calibri;-inkscape-font-specification:'Calibri Bold'"
       id="path24277" />
  </g>
  <g
     aria-label="&lt;"
     transform="scale(0.8157706,1.2258348)"
     id="text5583-4-1-7"
     style="font-size:20.525px;line-height:1.25;fill:#000000;stroke-width:0.513125">
    <path
       d="m 153.72685,53.343114 q 0,0.370813 -0.0301,0.581274 -0.0301,0.210462 -0.10022,0.300659 -0.0601,0.0902 -0.16035,0.08018 -0.0902,-0.01002 -0.24053,-0.08018 l -7.68686,-3.828393 q -0.1403,-0.08018 -0.21046,-0.330725 -0.0601,-0.260572 -0.0601,-0.771692 0,-0.260571 0.02,-0.450989 0.02,-0.200439 0.0501,-0.320703 0.0301,-0.130286 0.0802,-0.200439 0.0601,-0.08018 0.13029,-0.120264 l 7.67683,-3.80835 q 0.29063,-0.140307 0.4109,0.06013 0.12026,0.190418 0.12026,0.791736 0,0.410901 -0.02,0.651428 -0.01,0.240528 -0.0501,0.380835 -0.0401,0.140308 -0.11024,0.20044 -0.0702,0.06013 -0.19042,0.120263 l -5.77266,2.705933 5.66242,2.625757 q 0.15033,0.07015 0.24052,0.140307 0.10022,0.07015 0.15033,0.220484 0.0501,0.140307 0.0702,0.390857 0.02,0.240527 0.02,0.66145 z"
       style="font-weight:bold;font-family:Calibri;-inkscape-font-specification:'Calibri Bold'"
       id="path24274" />
  </g>
  <g
     aria-label="SUBMIT"
     transform="scale(0.8157706,1.2258348)"
     id="text5583-4-1-1"
     style="font-size:20.525px;line-height:1.25;fill:#000000;stroke-width:0.513125">
    <path
       d="m 316.42905,115.41741 q 0,1.02224 -0.38083,1.79393 -0.38084,0.77169 -1.03227,1.29283 -0.65142,0.51112 -1.52334,0.7717 -0.87191,0.26057 -1.86408,0.26057 -0.67147,0 -1.25275,-0.11025 -0.57125,-0.11024 -1.01222,-0.26057 -0.44096,-0.16035 -0.74162,-0.33072 -0.29064,-0.17038 -0.42093,-0.30066 -0.13028,-0.13029 -0.19041,-0.37081 -0.0501,-0.25055 -0.0501,-0.71156 0,-0.31068 0.02,-0.52115 0.02,-0.21046 0.0601,-0.34074 0.0501,-0.13029 0.12027,-0.1804 0.0802,-0.0601 0.18039,-0.0601 0.14031,0 0.39086,0.17037 0.26057,0.16035 0.66145,0.36079 0.40088,0.20044 0.95209,0.37082 0.56123,0.16035 1.29283,0.16035 0.48105,0 0.86189,-0.11024 0.38083,-0.12027 0.64141,-0.33073 0.27059,-0.21046 0.4109,-0.52114 0.1403,-0.31068 0.1403,-0.69152 0,-0.44096 -0.24052,-0.75165 -0.24053,-0.3207 -0.63139,-0.56123 -0.38083,-0.25054 -0.87191,-0.46101 -0.49108,-0.22048 -1.01222,-0.46101 -0.52114,-0.24052 -1.01222,-0.54118 -0.49107,-0.31068 -0.88193,-0.73161 -0.38084,-0.43094 -0.62136,-1.01222 -0.24053,-0.58127 -0.24053,-1.39305 0,-0.93204 0.34075,-1.63358 0.35077,-0.71156 0.93204,-1.17257 0.5913,-0.47104 1.38303,-0.70154 0.80176,-0.23051 1.69372,-0.23051 0.46101,0 0.92202,0.0702 0.46101,0.0701 0.86189,0.19041 0.40088,0.12027 0.71156,0.2706 0.31068,0.15033 0.4109,0.25055 0.10022,0.10022 0.13028,0.17037 0.0401,0.0702 0.0601,0.19042 0.0301,0.11024 0.0401,0.29064 0.01,0.17037 0.01,0.43094 0,0.29064 -0.02,0.49108 -0.01,0.20044 -0.0501,0.33072 -0.0301,0.13029 -0.10022,0.19042 -0.0601,0.0601 -0.17037,0.0601 -0.11024,0 -0.35077,-0.14031 -0.24053,-0.1403 -0.5913,-0.30066 -0.35077,-0.17037 -0.81178,-0.30065 -0.46101,-0.14031 -1.01222,-0.14031 -0.43094,0 -0.75164,0.11024 -0.32071,0.10022 -0.54119,0.29064 -0.21046,0.18039 -0.3207,0.44096 -0.10022,0.26057 -0.10022,0.55121 0,0.43095 0.2305,0.75165 0.24053,0.31068 0.63139,0.56123 0.40087,0.24053 0.90197,0.46101 0.5011,0.21046 1.02224,0.45099 0.52115,0.24053 1.02225,0.55121 0.50109,0.30066 0.89195,0.7316 0.39086,0.42093 0.63139,1.0022 0.24052,0.57125 0.24052,1.35297 z"
       style="font-weight:bold;font-family:Calibri;-inkscape-font-specification:'Calibri Bold'"
       id="path24290" />
    <path
       d="m 329.02667,114.47534 q 0,1.19262 -0.35077,2.13468 -0.35077,0.94207 -1.03226,1.59349 -0.68149,0.65143 -1.68369,0.99218 -1.0022,0.34075 -2.30506,0.34075 -1.22268,0 -2.19481,-0.30066 -0.97213,-0.31068 -1.6436,-0.93205 -0.67147,-0.62136 -1.03226,-1.54338 -0.35077,-0.93204 -0.35077,-2.17477 v -7.88729 q 0,-0.10022 0.0601,-0.1804 0.0601,-0.0802 0.21046,-0.13028 0.16035,-0.0501 0.4109,-0.0802 0.25055,-0.0301 0.64141,-0.0301 0.38083,0 0.63138,0.0301 0.25055,0.0301 0.40088,0.0802 0.15033,0.0501 0.21046,0.13028 0.0702,0.0802 0.0702,0.1804 v 7.65679 q 0,0.77169 0.19041,1.34294 0.19042,0.56123 0.54119,0.93204 0.36079,0.37082 0.85187,0.56123 0.5011,0.1804 1.11244,0.1804 0.62136,0 1.11244,-0.19042 0.49107,-0.19041 0.83182,-0.55121 0.34075,-0.37081 0.52114,-0.90197 0.19042,-0.54119 0.19042,-1.22268 v -7.80712 q 0,-0.10022 0.0601,-0.1804 0.0601,-0.0802 0.21046,-0.13028 0.15033,-0.0501 0.40088,-0.0802 0.26057,-0.0301 0.64141,-0.0301 0.38083,0 0.62136,0.0301 0.25055,0.0301 0.40088,0.0802 0.15033,0.0501 0.21046,0.13028 0.0601,0.0802 0.0601,0.1804 z"
       style="font-weight:bold;font-family:Calibri;-inkscape-font-specification:'Calibri Bold'"
       id="path24292" />
    <path
       d="m 341.23343,115.41741 q 0,0.69151 -0.19041,1.25274 -0.19042,0.56123 -0.53117,0.99218 -0.33072,0.43094 -0.80175,0.74162 -0.46102,0.31068 -1.02225,0.51112 -0.56123,0.20044 -1.20263,0.30066 -0.63139,0.0902 -1.4131,0.0902 h -3.44756 q -0.33072,0 -0.56123,-0.19042 -0.22048,-0.20044 -0.22048,-0.6414 v -11.30479 q 0,-0.44096 0.22048,-0.63138 0.23051,-0.20044 0.56123,-0.20044 h 3.25714 q 1.19262,0 2.01442,0.20044 0.83182,0.20044 1.39305,0.61134 0.57125,0.40088 0.87191,1.02224 0.30066,0.62136 0.30066,1.46321 0,0.47103 -0.12026,0.89195 -0.12026,0.4109 -0.35077,0.75165 -0.23051,0.34075 -0.57125,0.60132 -0.33073,0.26057 -0.76167,0.42092 0.55121,0.10022 1.01222,0.35077 0.47103,0.25055 0.81178,0.65143 0.35077,0.39086 0.55121,0.92202 0.20043,0.53117 0.20043,1.19262 z m -3.40747,-5.46198 q 0,-0.39086 -0.12026,-0.70154 -0.12026,-0.31068 -0.36079,-0.51112 -0.24053,-0.21046 -0.61134,-0.3207 -0.36079,-0.11024 -0.97213,-0.11024 h -1.33292 v 3.36738 h 1.47323 q 0.57125,0 0.91199,-0.13029 0.34075,-0.1403 0.56124,-0.37081 0.2305,-0.24053 0.34074,-0.55121 0.11024,-0.3207 0.11024,-0.67147 z m 0.67148,5.55217 q 0,-0.45099 -0.15033,-0.80175 -0.15033,-0.3608 -0.44097,-0.60132 -0.29064,-0.24053 -0.74163,-0.37082 -0.45098,-0.13028 -1.17257,-0.13028 h -1.56342 v 3.68808 h 1.90417 q 0.55121,0 0.92202,-0.11024 0.38084,-0.12026 0.65143,-0.34074 0.28062,-0.23051 0.43094,-0.56123 0.16036,-0.34075 0.16036,-0.7717 z"
       style="font-weight:bold;font-family:Calibri;-inkscape-font-specification:'Calibri Bold'"
       id="path24294" />
    <path
       d="m 358.4612,118.94514 q 0,0.10022 -0.0601,0.1804 -0.0501,0.0802 -0.20044,0.13028 -0.14031,0.0501 -0.38083,0.0802 -0.24053,0.0301 -0.61134,0.0301 -0.36079,0 -0.60132,-0.0301 -0.24053,-0.0301 -0.38084,-0.0802 -0.1403,-0.0501 -0.20044,-0.13028 -0.0601,-0.0802 -0.0601,-0.1804 V 108.392 h -0.02 l -3.75824,10.54312 q -0.0401,0.13028 -0.13029,0.22048 -0.0902,0.0802 -0.25055,0.13029 -0.15033,0.0501 -0.39085,0.0601 -0.24053,0.02 -0.58128,0.02 -0.34074,0 -0.58127,-0.0301 -0.24053,-0.02 -0.40088,-0.0702 -0.15033,-0.0601 -0.24053,-0.1403 -0.0902,-0.0802 -0.12026,-0.19042 L 345.86358,108.392 h -0.02 v 10.55314 q 0,0.10022 -0.0601,0.1804 -0.0501,0.0802 -0.20044,0.13028 -0.15033,0.0501 -0.39086,0.0802 -0.2305,0.0301 -0.60132,0.0301 -0.36079,0 -0.60131,-0.0301 -0.24053,-0.0301 -0.39086,-0.0802 -0.14031,-0.0501 -0.20044,-0.13028 -0.0501,-0.0802 -0.0501,-0.1804 v -11.55533 q 0,-0.51112 0.27059,-0.78172 0.2706,-0.27059 0.72158,-0.27059 h 1.72378 q 0.46101,0 0.79174,0.0802 0.33072,0.0702 0.57125,0.25055 0.24053,0.17038 0.40088,0.46101 0.16035,0.28062 0.28062,0.70154 l 2.80615,7.72694 h 0.0401 l 2.90637,-7.70689 q 0.13028,-0.42093 0.28061,-0.71156 0.16035,-0.29064 0.36079,-0.47104 0.21047,-0.18039 0.49108,-0.25055 0.28062,-0.0802 0.65143,-0.0802 h 1.77389 q 0.27059,0 0.46101,0.0701 0.20044,0.0702 0.3207,0.21046 0.13029,0.13029 0.19042,0.33073 0.0702,0.19042 0.0702,0.44097 z"
       style="font-weight:bold;font-family:Calibri;-inkscape-font-specification:'Calibri Bold'"
       id="path24296" />
    <path
       d="m 363.9332,118.94514 q 0,0.10022 -0.0702,0.1804 -0.0601,0.0802 -0.21046,0.13028 -0.15033,0.0501 -0.40088,0.0802 -0.25055,0.0301 -0.64141,0.0301 -0.38083,0 -0.64141,-0.0301 -0.25055,-0.0301 -0.40087,-0.0802 -0.15033,-0.0501 -0.22049,-0.13028 -0.0601,-0.0802 -0.0601,-0.1804 v -12.24685 q 0,-0.10022 0.0601,-0.1804 0.0702,-0.0802 0.22049,-0.13028 0.16035,-0.0501 0.4109,-0.0802 0.25055,-0.0301 0.63138,-0.0301 0.39086,0 0.64141,0.0301 0.25055,0.0301 0.40088,0.0802 0.15033,0.0501 0.21046,0.13028 0.0702,0.0802 0.0702,0.1804 z"
       style="font-weight:bold;font-family:Calibri;-inkscape-font-specification:'Calibri Bold'"
       id="path24298" />
    <path
       d="m 375.38831,107.41987 q 0,0.29064 -0.0301,0.5011 -0.0201,0.20044 -0.0702,0.33073 -0.0501,0.12026 -0.13028,0.18039 -0.0701,0.0601 -0.16035,0.0601 h -3.24712 v 10.45292 q 0,0.10022 -0.0702,0.1804 -0.0601,0.0802 -0.21046,0.13028 -0.15033,0.0501 -0.4109,0.0802 -0.25055,0.0301 -0.63138,0.0301 -0.38084,0 -0.64141,-0.0301 -0.25055,-0.0301 -0.40088,-0.0802 -0.15033,-0.0501 -0.22048,-0.13028 -0.0601,-0.0802 -0.0601,-0.1804 v -10.45292 h -3.24712 q -0.10022,0 -0.17037,-0.0601 -0.0702,-0.0601 -0.12027,-0.18039 -0.0501,-0.13029 -0.0802,-0.33073 -0.02,-0.21046 -0.02,-0.5011 0,-0.30066 0.02,-0.51112 0.0301,-0.21046 0.0802,-0.33072 0.0501,-0.13029 0.12027,-0.1804 0.0702,-0.0601 0.17037,-0.0601 h 9.14004 q 0.0902,0 0.16035,0.0601 0.0802,0.0501 0.13028,0.1804 0.0501,0.12026 0.0702,0.33072 0.0301,0.21046 0.0301,0.51112 z"
       style="font-weight:bold;font-family:Calibri;-inkscape-font-specification:'Calibri Bold'"
       id="path24300" />
  </g>
  <g
     aria-label="X"
     transform="scale(0.8157706,1.2258348)"
     id="text5583-4-1-3"
     style="font-size:20.525px;line-height:1.25;fill:#000000;stroke-width:0.513125">
    <path
       d="m 325.15381,146.97982 q 0.1804,0.35077 0.23051,0.56124 0.0601,0.21046 -0.0601,0.3207 -0.12027,0.11024 -0.44097,0.14031 -0.31068,0.0301 -0.87191,0.0301 -0.47103,0 -0.74163,-0.02 -0.27059,-0.02 -0.43094,-0.0601 -0.15033,-0.0501 -0.22048,-0.13029 -0.0702,-0.0802 -0.12027,-0.20044 l -2.43534,-4.68026 -2.42531,4.68026 q -0.0601,0.12026 -0.13029,0.20044 -0.0702,0.0802 -0.23051,0.13029 -0.15033,0.0401 -0.43094,0.0601 -0.27059,0.02 -0.72158,0.02 -0.52115,0 -0.81178,-0.0301 -0.28062,-0.0301 -0.38084,-0.14031 -0.10022,-0.11024 -0.0401,-0.3207 0.0601,-0.21047 0.25055,-0.56124 l 3.10682,-5.66241 -2.88633,-5.32167 q -0.1804,-0.36079 -0.25055,-0.57125 -0.0601,-0.22048 0.0501,-0.3207 0.12026,-0.11024 0.43094,-0.13029 0.31068,-0.0301 0.88194,-0.0301 0.47103,0 0.74162,0.02 0.28062,0.02 0.44097,0.0701 0.16035,0.0401 0.22048,0.12027 0.0702,0.0802 0.13029,0.20044 l 2.27499,4.2894 2.21485,-4.2894 q 0.0601,-0.12027 0.12027,-0.20044 0.0701,-0.0802 0.21046,-0.12027 0.15033,-0.0501 0.40088,-0.0701 0.26057,-0.02 0.71156,-0.02 0.50109,0 0.79173,0.0301 0.29064,0.02 0.40088,0.13029 0.11024,0.11024 0.0501,0.3207 -0.0501,0.21046 -0.22048,0.57125 l -2.88633,5.2916 z"
       style="font-weight:bold;font-family:Calibri;-inkscape-font-specification:'Calibri Bold'"
       id="path24303" />
  </g>
  <g
     aria-label="X"
     transform="scale(0.8157706,1.2258348)"
     id="text5583-4-1-3-8"
     style="font-size:20.525px;line-height:1.25;fill:#000000;stroke-width:0.513125">
    <path
       d="m 368.2295,146.97982 q 0.18039,0.35077 0.2305,0.56124 0.0601,0.21046 -0.0601,0.3207 -0.12026,0.11024 -0.44097,0.14031 -0.31068,0.0301 -0.87191,0.0301 -0.47103,0 -0.74162,-0.02 -0.2706,-0.02 -0.43095,-0.0601 -0.15033,-0.0501 -0.22048,-0.13029 -0.0702,-0.0802 -0.12026,-0.20044 l -2.43534,-4.68026 -2.42532,4.68026 q -0.0601,0.12026 -0.13029,0.20044 -0.0702,0.0802 -0.2305,0.13029 -0.15033,0.0401 -0.43095,0.0601 -0.27059,0.02 -0.72158,0.02 -0.52114,0 -0.81178,-0.0301 -0.28061,-0.0301 -0.38083,-0.14031 -0.10022,-0.11024 -0.0401,-0.3207 0.0601,-0.21047 0.25055,-0.56124 l 3.10681,-5.66241 -2.88633,-5.32167 q -0.18039,-0.36079 -0.25055,-0.57125 -0.0601,-0.22048 0.0501,-0.3207 0.12027,-0.11024 0.43095,-0.13029 0.31068,-0.0301 0.88193,-0.0301 0.47103,0 0.74163,0.02 0.28061,0.02 0.44096,0.0701 0.16035,0.0401 0.22049,0.12027 0.0702,0.0802 0.13028,0.20044 l 2.27499,4.2894 2.21486,-4.2894 q 0.0601,-0.12027 0.12026,-0.20044 0.0702,-0.0802 0.21046,-0.12027 0.15033,-0.0501 0.40088,-0.0701 0.26057,-0.02 0.71156,-0.02 0.5011,0 0.79174,0.0301 0.29063,0.02 0.40087,0.13029 0.11025,0.11024 0.0501,0.3207 -0.0501,0.21046 -0.22048,0.57125 l -2.88633,5.2916 z"
       style="font-weight:bold;font-family:Calibri;-inkscape-font-specification:'Calibri Bold'"
       id="path24324" />
  </g>
  <g
     aria-label="Y"
     transform="scale(0.8157706,1.2258348)"
     id="text5583-4-1-3-2"
     style="font-size:20.525px;line-height:1.25;fill:#000000;stroke-width:0.513125">
    <path
       d="m 321.46227,171.7173 v 4.56 q 0,0.10022 -0.0702,0.1804 -0.0601,0.0802 -0.21046,0.13028 -0.15033,0.0501 -0.4109,0.0802 -0.25055,0.0301 -0.63138,0.0301 -0.39086,0 -0.64141,-0.0301 -0.25055,-0.0301 -0.4109,-0.0802 -0.15033,-0.0501 -0.21046,-0.13028 -0.0601,-0.0802 -0.0601,-0.1804 v -4.56 l -3.54778,-7.06549 q -0.19042,-0.37081 -0.25055,-0.57125 -0.0501,-0.21046 0.0601,-0.31068 0.12027,-0.11024 0.43095,-0.13029 0.31068,-0.0301 0.86189,-0.0301 0.46101,0 0.7316,0.02 0.28062,0.02 0.44097,0.0802 0.16035,0.0501 0.2305,0.14031 0.0802,0.0902 0.15033,0.2305 l 1.44317,3.18699 q 0.21046,0.46101 0.4109,0.97213 0.21046,0.51112 0.42092,1.07235 h 0.02 q 0.19042,-0.54119 0.39086,-1.05231 0.20044,-0.51112 0.39086,-0.97213 l 1.42312,-3.16694 q 0.0501,-0.16035 0.12026,-0.25055 0.0802,-0.10022 0.23051,-0.16035 0.15033,-0.0601 0.4109,-0.0802 0.26057,-0.02 0.69151,-0.02 0.57126,0 0.88194,0.0301 0.3207,0.02 0.43094,0.13029 0.12027,0.10022 0.0601,0.31068 -0.0601,0.21046 -0.24052,0.57125 z"
       style="font-weight:bold;font-family:Calibri;-inkscape-font-specification:'Calibri Bold'"
       id="path24306" />
  </g>
  <g
     aria-label="Y"
     transform="scale(0.8157706,1.2258348)"
     id="text5583-4-1-3-2-3"
     style="font-size:20.525px;line-height:1.25;fill:#000000;stroke-width:0.513125">
    <path
       d="m 364.53792,171.7173 v 4.56 q 0,0.10022 -0.0702,0.1804 -0.0601,0.0802 -0.21046,0.13028 -0.15033,0.0501 -0.41091,0.0802 -0.25054,0.0301 -0.63138,0.0301 -0.39086,0 -0.64141,-0.0301 -0.25054,-0.0301 -0.4109,-0.0802 -0.15033,-0.0501 -0.21046,-0.13028 -0.0601,-0.0802 -0.0601,-0.1804 v -4.56 l -3.54778,-7.06549 q -0.19042,-0.37081 -0.25055,-0.57125 -0.0501,-0.21046 0.0601,-0.31068 0.12027,-0.11024 0.43095,-0.13029 0.31068,-0.0301 0.86189,-0.0301 0.46101,0 0.7316,0.02 0.28062,0.02 0.44097,0.0802 0.16035,0.0501 0.23051,0.14031 0.0802,0.0902 0.15032,0.2305 l 1.44317,3.18699 q 0.21046,0.46101 0.4109,0.97213 0.21046,0.51112 0.42092,1.07235 h 0.0201 q 0.19041,-0.54119 0.39085,-1.05231 0.20044,-0.51112 0.39086,-0.97213 l 1.42312,-3.16694 q 0.0501,-0.16035 0.12026,-0.25055 0.0802,-0.10022 0.23051,-0.16035 0.15033,-0.0601 0.4109,-0.0802 0.26057,-0.02 0.69152,-0.02 0.57125,0 0.88193,0.0301 0.3207,0.02 0.43094,0.13029 0.12027,0.10022 0.0601,0.31068 -0.0601,0.21046 -0.24053,0.57125 z"
       style="font-weight:bold;font-family:Calibri;-inkscape-font-specification:'Calibri Bold'"
       id="path24321" />
  </g>
  <g
     aria-label="Z"
     transform="scale(0.8157706,1.2258348)"
     id="text5583-4-1-3-2-0"
     style="font-size:20.525px;line-height:1.25;fill:#000000;stroke-width:0.513125">
    <path
       d="m 324.57127,204.26188 q 0,0.29064 -0.0301,0.49108 -0.02,0.20044 -0.0702,0.33073 -0.0501,0.12026 -0.13028,0.17037 -0.0702,0.0501 -0.16036,0.0501 h -7.64676 q -0.40088,0 -0.62136,-0.23051 -0.21047,-0.2305 -0.21047,-0.67147 v -0.44097 q 0,-0.20044 0.0201,-0.36079 0.0301,-0.17037 0.0902,-0.34074 0.0601,-0.17038 0.17037,-0.37082 0.12026,-0.20044 0.29064,-0.48105 l 5.03103,-7.97749 h -4.99094 q -0.12027,0 -0.21047,-0.0501 -0.0802,-0.0601 -0.1403,-0.1804 -0.0501,-0.12026 -0.0802,-0.3207 -0.02,-0.20044 -0.02,-0.48105 0,-0.30066 0.02,-0.5011 0.0301,-0.21046 0.0802,-0.33073 0.0601,-0.13028 0.1403,-0.18039 0.0902,-0.0501 0.21047,-0.0501 h 7.16571 q 0.4109,0 0.60131,0.21046 0.20044,0.21046 0.20044,0.59129 v 0.49108 q 0,0.27059 -0.0301,0.47103 -0.02,0.19042 -0.0902,0.38084 -0.0601,0.18039 -0.17037,0.38083 -0.11025,0.19042 -0.28062,0.46101 l -4.95085,7.86725 h 5.42188 q 0.19042,0 0.29064,0.24053 0.10022,0.24053 0.10022,0.83182 z"
       style="font-weight:bold;font-family:Calibri;-inkscape-font-specification:'Calibri Bold'"
       id="path24309" />
  </g>
  <g
     aria-label="Z"
     transform="scale(0.8157706,1.2258348)"
     id="text5583-4-1-3-2-0-2"
     style="font-size:20.525px;line-height:1.25;fill:#000000;stroke-width:0.513125">
    <path
       d="m 367.64692,204.26188 q 0,0.29064 -0.0301,0.49108 -0.02,0.20044 -0.0702,0.33073 -0.0501,0.12026 -0.13028,0.17037 -0.0702,0.0501 -0.16035,0.0501 h -7.64677 q -0.40088,0 -0.62136,-0.23051 -0.21046,-0.2305 -0.21046,-0.67147 v -0.44097 q 0,-0.20044 0.02,-0.36079 0.0301,-0.17037 0.0902,-0.34074 0.0601,-0.17038 0.17037,-0.37082 0.12027,-0.20044 0.29064,-0.48105 l 5.03103,-7.97749 h -4.99094 q -0.12027,0 -0.21046,-0.0501 -0.0802,-0.0601 -0.14031,-0.1804 -0.0501,-0.12026 -0.0802,-0.3207 -0.02,-0.20044 -0.02,-0.48105 0,-0.30066 0.02,-0.5011 0.0301,-0.21046 0.0802,-0.33073 0.0601,-0.13028 0.14031,-0.18039 0.0902,-0.0501 0.21046,-0.0501 h 7.16571 q 0.4109,0 0.60132,0.21046 0.20044,0.21046 0.20044,0.59129 v 0.49108 q 0,0.27059 -0.0301,0.47103 -0.02,0.19042 -0.0902,0.38084 -0.0601,0.18039 -0.17037,0.38083 -0.11024,0.19042 -0.28062,0.46101 l -4.95085,7.86725 h 5.42189 q 0.19041,0 0.29063,0.24053 0.10022,0.24053 0.10022,0.83182 z"
       style="font-weight:bold;font-family:Calibri;-inkscape-font-specification:'Calibri Bold'"
       id="path24318" />
  </g>
  <g
     aria-label="W"
     transform="scale(0.8157706,1.2258348)"
     id="text5583-4-1-3-2-0-4"
     style="font-size:20.525px;line-height:1.25;fill:#000000;stroke-width:0.513125">
    <path
       d="m 325.90803,233.29879 q -0.0601,0.24053 -0.17038,0.39086 -0.10022,0.1403 -0.31068,0.22048 -0.21046,0.0701 -0.54119,0.0902 -0.33072,0.0301 -0.84184,0.0301 -0.57125,0 -0.92202,-0.0301 -0.34075,-0.02 -0.54119,-0.0902 -0.20044,-0.0802 -0.29064,-0.22048 -0.0902,-0.15033 -0.1403,-0.39086 l -2.07455,-8.21802 h -0.0201 l -1.9643,8.21802 q -0.0501,0.2305 -0.14031,0.38083 -0.0902,0.14031 -0.29064,0.22049 -0.19041,0.0802 -0.53116,0.10022 -0.33073,0.0301 -0.88194,0.0301 -0.58127,0 -0.93204,-0.0301 -0.34075,-0.02 -0.54119,-0.0902 -0.20044,-0.0802 -0.29063,-0.22048 -0.0902,-0.15033 -0.15033,-0.39086 l -2.94646,-11.31481 q -0.0902,-0.36079 -0.10022,-0.56123 -0.01,-0.21046 0.11024,-0.3207 0.13029,-0.11024 0.4109,-0.13029 0.29064,-0.0301 0.80176,-0.0301 0.47103,0 0.74162,0.02 0.28062,0.01 0.42093,0.0702 0.1403,0.0501 0.19041,0.16036 0.0501,0.10022 0.0802,0.29063 l 2.27499,9.93178 h 0.01 l 2.36519,-9.86162 q 0.0401,-0.19042 0.10022,-0.31068 0.0701,-0.12027 0.22048,-0.1804 0.16035,-0.0702 0.43094,-0.0902 0.2706,-0.0301 0.72159,-0.0301 0.48105,0 0.76167,0.02 0.29063,0.02 0.44096,0.0902 0.16035,0.0601 0.23051,0.18039 0.0701,0.12027 0.11024,0.32071 l 2.44536,9.86162 h 0.02 l 2.27499,-9.90171 q 0.0301,-0.16035 0.0802,-0.27059 0.0501,-0.12027 0.19042,-0.1804 0.1403,-0.0702 0.40087,-0.0902 0.26058,-0.0301 0.73161,-0.0301 0.44097,0 0.68149,0.0301 0.25055,0.02 0.36079,0.13029 0.11025,0.11024 0.0902,0.33072 -0.01,0.21046 -0.10022,0.58128 z"
       style="font-weight:bold;font-family:Calibri;-inkscape-font-specification:'Calibri Bold'"
       id="path24312" />
  </g>
  <g
     aria-label="W"
     transform="scale(0.8157706,1.2258348)"
     id="text5583-4-1-3-2-0-4-6"
     style="font-size:20.525px;line-height:1.25;fill:#000000;stroke-width:0.513125">
    <path
       d="m 368.98371,233.29879 q -0.0601,0.24053 -0.17037,0.39086 -0.10022,0.1403 -0.31069,0.22048 -0.21046,0.0701 -0.54118,0.0902 -0.33073,0.0301 -0.84185,0.0301 -0.57125,0 -0.92202,-0.0301 -0.34075,-0.02 -0.54119,-0.0902 -0.20043,-0.0802 -0.29063,-0.22048 -0.0902,-0.15033 -0.14031,-0.39086 l -2.07455,-8.21802 h -0.02 l -1.96431,8.21802 q -0.0501,0.2305 -0.14031,0.38083 -0.0902,0.14031 -0.29063,0.22049 -0.19042,0.0802 -0.53117,0.10022 -0.33072,0.0301 -0.88193,0.0301 -0.58128,0 -0.93205,-0.0301 -0.34074,-0.02 -0.54118,-0.0902 -0.20044,-0.0802 -0.29064,-0.22048 -0.0902,-0.15033 -0.15033,-0.39086 l -2.94646,-11.31481 q -0.0902,-0.36079 -0.10022,-0.56123 -0.01,-0.21046 0.11024,-0.3207 0.13029,-0.11024 0.4109,-0.13029 0.29064,-0.0301 0.80176,-0.0301 0.47103,0 0.74163,0.02 0.28061,0.01 0.42092,0.0702 0.14031,0.0501 0.19042,0.16036 0.0501,0.10022 0.0802,0.29063 l 2.27499,9.93178 h 0.01 l 2.36519,-9.86162 q 0.0401,-0.19042 0.10022,-0.31068 0.0702,-0.12027 0.22048,-0.1804 0.16035,-0.0702 0.43095,-0.0902 0.27059,-0.0301 0.72158,-0.0301 0.48105,0 0.76167,0.02 0.29064,0.02 0.44097,0.0902 0.16035,0.0601 0.2305,0.18039 0.0702,0.12027 0.11024,0.32071 l 2.44536,9.86162 h 0.0201 l 2.27499,-9.90171 q 0.0301,-0.16035 0.0802,-0.27059 0.0501,-0.12027 0.19042,-0.1804 0.14031,-0.0702 0.40088,-0.0902 0.26057,-0.0301 0.7316,-0.0301 0.44097,0 0.6815,0.0301 0.25055,0.02 0.36079,0.13029 0.11024,0.11024 0.0902,0.33072 -0.01,0.21046 -0.10021,0.58128 z"
       style="font-weight:bold;font-family:Calibri;-inkscape-font-specification:'Calibri Bold'"
       id="path24315" />
  </g>
</svg>
